<svg role="img" viewBox="0 0 24 24" xmlns="http://www.w3.org/2000/svg" fill="#00A8E1"><title>Amazon Music</title><path d="M12 24C5.373 24 0 18.627 0 12S5.373 0 12 0s12 5.373 12 12-5.373 12-12 12Z"/><path d="M17.422 17.39c-3.732 2.732-8.765 2.386-11.54 1.132-.335-.16-.38-.572-.16-.822.22-.25.572-.267.872-.132 2.43 1.092 6.757 1.42 9.957-.927.26-.19.67-.152.86.1.19.26.15.67-.1.86ZM16.8 8.61c-1.32-1.35-3.42-1.7-5.77-.85-.3.11-.6.22-.87.37v-.2c0-1.25-.6-1.92-2.15-1.92-1.35 0-2.3.45-3.05 1.3-.2.22-.57.2-.75-.05l-.75-1c-.2-.25-.15-.6.07-.87 1-1.22 2.45-1.97 4.6-1.97 3.25 0 4.5 1.85 4.5 4.55v4.1c0 .7.17 1.25.57 1.67.12.12.12.32-.03.42l-.72.77c-.1.12-.27.17-.45.12-.22-.05-.45-.1-.65-.12Zm-6.35-.95c-1.65 0-2.75.47-2.75 1.75 0 .77.47 1.4 1.47 1.4 1.05 0 2.05-.55 2.52-1.3v-1.5c-.4-.2-.85-.32-1.25-.32Z" fill="#fff"/></svg>